<?xml version="1.0" encoding="UTF-8" standalone="no"?>
<!DOCTYPE svg PUBLIC "-//W3C//DTD SVG 1.1//EN" "http://www.w3.org/Graphics/SVG/1.1/DTD/svg11.dtd">
<svg version="1.1" xmlns="http://www.w3.org/2000/svg" xmlns:xlink="http://www.w3.org/1999/xlink" preserveAspectRatio="xMidYMid meet" viewBox="0 0 640 640" width="1050" height="1050"><defs><path d="M410.12 70C421.16 70 430.12 78.95 430.12 90C430.12 96.48 430.12 95.9 430.12 102.38C430.12 113.43 421.16 122.38 410.12 122.38C374.6 122.38 288.02 122.38 252.5 122.38C241.45 122.38 232.5 113.43 232.5 102.38C232.5 95.9 232.5 96.48 232.5 90C232.5 78.95 241.45 70 252.5 70C288.02 70 374.6 70 410.12 70Z" id="b4lM8e02C"></path><path d="M583.86 270.18C589.22 279.84 585.73 292.01 576.07 297.37C570.41 300.51 570.91 300.23 565.24 303.37C555.58 308.73 543.41 305.24 538.05 295.58C520.83 264.51 478.84 188.81 461.61 157.74C456.26 148.08 459.74 135.91 469.4 130.55C475.07 127.41 474.57 127.69 480.23 124.54C489.89 119.19 502.06 122.68 507.42 132.34C524.65 163.4 566.63 239.11 583.86 270.18Z" id="b3m9ZN6pbG"></path><path d="M508.15 522.86C502.88 532.56 490.74 536.16 481.03 530.89C475.34 527.8 475.84 528.07 470.15 524.98C460.44 519.71 456.84 507.57 462.12 497.86C479.07 466.64 520.38 390.56 537.33 359.35C542.6 349.64 554.74 346.04 564.45 351.31C570.14 354.4 569.64 354.13 575.33 357.22C585.04 362.49 588.63 374.63 583.36 384.34C566.41 415.56 525.1 491.64 508.15 522.86Z" id="i263qJLwkb"></path><path d="M410.12 525.71C421.16 525.71 430.12 534.67 430.12 545.71C430.12 552.19 430.12 551.62 430.12 558.1C430.12 569.14 421.16 578.1 410.12 578.1C374.6 578.1 288.02 578.1 252.5 578.1C241.45 578.1 232.5 569.14 232.5 558.1C232.5 551.62 232.5 552.19 232.5 545.71C232.5 534.67 241.45 525.71 252.5 525.71C288.02 525.71 374.6 525.71 410.12 525.71Z" id="i5TVdhOMib"></path><path d="M125.77 289.29C120.5 298.99 108.35 302.59 98.65 297.32C92.96 294.23 93.46 294.5 87.77 291.41C78.06 286.14 74.46 274 79.73 264.29C96.69 233.07 138 156.99 154.95 125.77C160.22 116.07 172.36 112.47 182.07 117.74C187.76 120.83 187.26 120.56 192.95 123.65C202.65 128.92 206.25 141.06 200.98 150.77C184.03 181.99 142.72 258.07 125.77 289.29Z" id="c21z1Xkh3E"></path><path d="M202.07 497.61C207.43 507.27 203.94 519.44 194.28 524.8C188.62 527.94 189.12 527.66 183.45 530.8C173.79 536.16 161.62 532.67 156.26 523.01C139.03 491.95 97.05 416.24 79.82 385.17C74.46 375.51 77.95 363.34 87.61 357.98C93.27 354.84 92.77 355.12 98.44 351.98C108.1 346.62 120.27 350.11 125.63 359.77C142.86 390.83 184.84 466.54 202.07 497.61Z" id="d3uawHRMx9"></path></defs><g><g><g><use xlink:href="#b4lM8e02C" opacity="1" fill="#171a19" fill-opacity="1"></use></g><g><use xlink:href="#b3m9ZN6pbG" opacity="1" fill="#171a19" fill-opacity="1"></use></g><g><use xlink:href="#i263qJLwkb" opacity="1" fill="#171a19" fill-opacity="1"></use></g><g><use xlink:href="#i5TVdhOMib" opacity="1" fill="#171a19" fill-opacity="1"></use></g><g><use xlink:href="#c1z1Xkh3E" opacity="1" fill="#171a19" fill-opacity="1"></use></g><g><use xlink:href="#d3uawHRMx9" opacity="1" fill="#171a19" fill-opacity="1"></use></g></g></g></svg>